<svg width="185" height="41" viewBox="0 0 185 41" fill="none" xmlns="http://www.w3.org/2000/svg">
<path d="M69.7891 21.0273H63.0391V28H59.5234V10.9375H70.6328V13.7852H63.0391V18.1914H69.7891V21.0273ZM79.3984 28C79.2422 27.6953 79.1289 27.3164 79.0586 26.8633C78.2383 27.7773 77.1719 28.2344 75.8594 28.2344C74.6172 28.2344 73.5859 27.875 72.7656 27.1562C71.9531 26.4375 71.5469 25.5312 71.5469 24.4375C71.5469 23.0938 72.043 22.0625 73.0352 21.3438C74.0352 20.625 75.4766 20.2617 77.3594 20.2539H78.918V19.5273C78.918 18.9414 78.7656 18.4727 78.4609 18.1211C78.1641 17.7695 77.6914 17.5938 77.043 17.5938C76.4727 17.5938 76.0234 17.7305 75.6953 18.0039C75.375 18.2773 75.2148 18.6523 75.2148 19.1289H71.8281C71.8281 18.3945 72.0547 17.7148 72.5078 17.0898C72.9609 16.4648 73.6016 15.9766 74.4297 15.625C75.2578 15.2656 76.1875 15.0859 77.2188 15.0859C78.7812 15.0859 80.0195 15.4805 80.9336 16.2695C81.8555 17.0508 82.3164 18.1523 82.3164 19.5742V25.0703C82.3242 26.2734 82.4922 27.1836 82.8203 27.8008V28H79.3984ZM76.5977 25.6445C77.0977 25.6445 77.5586 25.5352 77.9805 25.3164C78.4023 25.0898 78.7148 24.7891 78.918 24.4141V22.2344H77.6523C75.957 22.2344 75.0547 22.8203 74.9453 23.9922L74.9336 24.1914C74.9336 24.6133 75.082 24.9609 75.3789 25.2344C75.6758 25.5078 76.082 25.6445 76.5977 25.6445ZM91.7852 24.4961C91.7852 24.082 91.5781 23.7578 91.1641 23.5234C90.7578 23.2812 90.1016 23.0664 89.1953 22.8789C86.1797 22.2461 84.6719 20.9648 84.6719 19.0352C84.6719 17.9102 85.1367 16.9727 86.0664 16.2227C87.0039 15.4648 88.2266 15.0859 89.7344 15.0859C91.3438 15.0859 92.6289 15.4648 93.5898 16.2227C94.5586 16.9805 95.043 17.9648 95.043 19.1758H91.6562C91.6562 18.6914 91.5 18.293 91.1875 17.9805C90.875 17.6602 90.3867 17.5 89.7227 17.5C89.1523 17.5 88.7109 17.6289 88.3984 17.8867C88.0859 18.1445 87.9297 18.4727 87.9297 18.8711C87.9297 19.2461 88.1055 19.5508 88.457 19.7852C88.8164 20.0117 89.418 20.2109 90.2617 20.3828C91.1055 20.5469 91.8164 20.7344 92.3945 20.9453C94.1836 21.6016 95.0781 22.7383 95.0781 24.3555C95.0781 25.5117 94.582 26.4492 93.5898 27.168C92.5977 27.8789 91.3164 28.2344 89.7461 28.2344C88.6836 28.2344 87.7383 28.0469 86.9102 27.6719C86.0898 27.2891 85.4453 26.7695 84.9766 26.1133C84.5078 25.4492 84.2734 24.7344 84.2734 23.9688H87.4844C87.5156 24.5703 87.7383 25.0312 88.1523 25.3516C88.5664 25.6719 89.1211 25.832 89.8164 25.832C90.4648 25.832 90.9531 25.7109 91.2812 25.4688C91.6172 25.2188 91.7852 24.8945 91.7852 24.4961ZM101.324 12.2031V15.3203H103.492V17.8047H101.324V24.1328C101.324 24.6016 101.414 24.9375 101.594 25.1406C101.773 25.3438 102.117 25.4453 102.625 25.4453C103 25.4453 103.332 25.418 103.621 25.3633V27.9297C102.957 28.1328 102.273 28.2344 101.57 28.2344C99.1953 28.2344 97.9844 27.0352 97.9375 24.6367V17.8047H96.0859V15.3203H97.9375V12.2031H101.324ZM114.449 23.5234C114.449 22.8594 114.215 22.3516 113.746 22C113.277 21.6406 112.434 21.2656 111.215 20.875C109.996 20.4766 109.031 20.0859 108.32 19.7031C106.383 18.6562 105.414 17.2461 105.414 15.4727C105.414 14.5508 105.672 13.7305 106.188 13.0117C106.711 12.2852 107.457 11.7188 108.426 11.3125C109.402 10.9062 110.496 10.7031 111.707 10.7031C112.926 10.7031 114.012 10.9258 114.965 11.3711C115.918 11.8086 116.656 12.4297 117.18 13.2344C117.711 14.0391 117.977 14.9531 117.977 15.9766H114.461C114.461 15.1953 114.215 14.5898 113.723 14.1602C113.23 13.7227 112.539 13.5039 111.648 13.5039C110.789 13.5039 110.121 13.6875 109.645 14.0547C109.168 14.4141 108.93 14.8906 108.93 15.4844C108.93 16.0391 109.207 16.5039 109.762 16.8789C110.324 17.2539 111.148 17.6055 112.234 17.9336C114.234 18.5352 115.691 19.2812 116.605 20.1719C117.52 21.0625 117.977 22.1719 117.977 23.5C117.977 24.9766 117.418 26.1367 116.301 26.9805C115.184 27.8164 113.68 28.2344 111.789 28.2344C110.477 28.2344 109.281 27.9961 108.203 27.5195C107.125 27.0352 106.301 26.375 105.73 25.5391C105.168 24.7031 104.887 23.7344 104.887 22.6328H108.414C108.414 24.5156 109.539 25.457 111.789 25.457C112.625 25.457 113.277 25.2891 113.746 24.9531C114.215 24.6094 114.449 24.1328 114.449 23.5234ZM125.98 28.2344C124.121 28.2344 122.605 27.6641 121.434 26.5234C120.27 25.3828 119.688 23.8633 119.688 21.9648V21.6367C119.688 20.3633 119.934 19.2266 120.426 18.2266C120.918 17.2188 121.613 16.4453 122.512 15.9062C123.418 15.3594 124.449 15.0859 125.605 15.0859C127.34 15.0859 128.703 15.6328 129.695 16.7266C130.695 17.8203 131.195 19.3711 131.195 21.3789V22.7617H123.121C123.23 23.5898 123.559 24.2539 124.105 24.7539C124.66 25.2539 125.359 25.5039 126.203 25.5039C127.508 25.5039 128.527 25.0312 129.262 24.0859L130.926 25.9492C130.418 26.668 129.73 27.2305 128.863 27.6367C127.996 28.0352 127.035 28.2344 125.98 28.2344ZM125.594 17.8281C124.922 17.8281 124.375 18.0547 123.953 18.5078C123.539 18.9609 123.273 19.6094 123.156 20.4531H127.867V20.1836C127.852 19.4336 127.648 18.8555 127.258 18.4492C126.867 18.0352 126.312 17.8281 125.594 17.8281ZM140.254 18.4961C139.793 18.4336 139.387 18.4023 139.035 18.4023C137.754 18.4023 136.914 18.8359 136.516 19.7031V28H133.129V15.3203H136.328L136.422 16.832C137.102 15.668 138.043 15.0859 139.246 15.0859C139.621 15.0859 139.973 15.1367 140.301 15.2383L140.254 18.4961ZM146.852 23.8633L149.207 15.3203H152.746L148.469 28H145.234L140.957 15.3203H144.496L146.852 23.8633ZM157.82 28H154.422V15.3203H157.82V28ZM154.223 12.0391C154.223 11.5312 154.391 11.1133 154.727 10.7852C155.07 10.457 155.535 10.293 156.121 10.293C156.699 10.293 157.16 10.457 157.504 10.7852C157.848 11.1133 158.02 11.5312 158.02 12.0391C158.02 12.5547 157.844 12.9766 157.492 13.3047C157.148 13.6328 156.691 13.7969 156.121 13.7969C155.551 13.7969 155.09 13.6328 154.738 13.3047C154.395 12.9766 154.223 12.5547 154.223 12.0391ZM165.895 25.5039C166.52 25.5039 167.027 25.332 167.418 24.9883C167.809 24.6445 168.012 24.1875 168.027 23.6172H171.203C171.195 24.4766 170.961 25.2656 170.5 25.9844C170.039 26.6953 169.406 27.25 168.602 27.6484C167.805 28.0391 166.922 28.2344 165.953 28.2344C164.141 28.2344 162.711 27.6602 161.664 26.5117C160.617 25.3555 160.094 23.7617 160.094 21.7305V21.5078C160.094 19.5547 160.613 17.9961 161.652 16.832C162.691 15.668 164.117 15.0859 165.93 15.0859C167.516 15.0859 168.785 15.5391 169.738 16.4453C170.699 17.3438 171.188 18.543 171.203 20.043H168.027C168.012 19.3867 167.809 18.8555 167.418 18.4492C167.027 18.0352 166.512 17.8281 165.871 17.8281C165.082 17.8281 164.484 18.1172 164.078 18.6953C163.68 19.2656 163.48 20.1953 163.48 21.4844V21.8359C163.48 23.1406 163.68 24.0781 164.078 24.6484C164.477 25.2188 165.082 25.5039 165.895 25.5039ZM178.973 28.2344C177.113 28.2344 175.598 27.6641 174.426 26.5234C173.262 25.3828 172.68 23.8633 172.68 21.9648V21.6367C172.68 20.3633 172.926 19.2266 173.418 18.2266C173.91 17.2188 174.605 16.4453 175.504 15.9062C176.41 15.3594 177.441 15.0859 178.598 15.0859C180.332 15.0859 181.695 15.6328 182.688 16.7266C183.688 17.8203 184.188 19.3711 184.188 21.3789V22.7617H176.113C176.223 23.5898 176.551 24.2539 177.098 24.7539C177.652 25.2539 178.352 25.5039 179.195 25.5039C180.5 25.5039 181.52 25.0312 182.254 24.0859L183.918 25.9492C183.41 26.668 182.723 27.2305 181.855 27.6367C180.988 28.0352 180.027 28.2344 178.973 28.2344ZM178.586 17.8281C177.914 17.8281 177.367 18.0547 176.945 18.5078C176.531 18.9609 176.266 19.6094 176.148 20.4531H180.859V20.1836C180.844 19.4336 180.641 18.8555 180.25 18.4492C179.859 18.0352 179.305 17.8281 178.586 17.8281Z" fill="#283044"/>
<g clip-path="url(#clip0_1_134)">
<path d="M40.0316 0.425376C39.8785 0.161759 39.5966 -0.000319262 39.2919 1.05078e-06H30.7502C30.4431 -0.000479418 30.1594 0.163841 30.007 0.430501L16.3404 24.3472C16.1937 24.6075 16.1937 24.9257 16.3404 25.186L24.8821 40.561C25.0323 40.831 25.3164 40.9988 25.6253 41.0001H34.167C34.6387 41.0001 35.0211 40.6177 35.0211 40.146C35.0211 40.0007 34.9841 39.8578 34.9135 39.7308L26.6058 24.7708L40.035 1.27781C40.1859 1.01339 40.1846 0.688593 40.0316 0.425376Z" fill="#78A1BB"/>
<path d="M17.8164 15.7901L12.6914 7.24844C12.5371 6.99083 12.2588 6.83323 11.9585 6.83331H3.41684C2.9451 6.83323 2.56257 7.21561 2.56249 7.68735C2.56249 7.84206 2.60445 7.99389 2.68397 8.12657L7.55272 16.2394L0.965409 27.7638C0.731421 28.1734 0.8738 28.6952 1.2834 28.9292C1.41289 29.0031 1.55943 29.0419 1.70853 29.0417H10.2502C10.5573 29.0422 10.841 28.8779 10.9934 28.6112L17.8267 16.6529C17.9794 16.3846 17.9754 16.0547 17.8164 15.7901Z" fill="#65B3E4"/>
</g>
<defs>
<clipPath id="clip0_1_134">
<rect width="41" height="41" fill="white"/>
</clipPath>
</defs>
</svg>
